<svg viewBox="0 0 16 16" fill="currentcolor" xmlns="http://www.w3.org/2000/svg" xmlns:xlink="http://www.w3.org/1999/xlink">
  <path d="M14.53 2.53a.75.75 0 0 0-1.06-1.06L8.852 6.087 5.335 4.33a.75.75 0 0 0-.904.183l-3 3.5a.75.75 0 1 0 1.138.976l2.62-3.055L8.664 7.67a.75.75 0 0 0 .865-.14l5-5z
M1.5 10 h2.4v1h-2.4v-1z	M4.15 10 h2.4v1h-2.4v-1z	M6.8 10 h2.4v1h-2.4v-1z	M9.45 10 h2.4v1h-2.4v-1z	M12.1 10 h2.4v1h-2.4v-1z
M1.5 11.5 h2.4v1h-2.4v-1z	M4.15 11.5 h2.4v1h-2.4v-1z	M6.8 11.5 h2.4v1h-2.4v-1z	M9.45 11.5 h2.4v1h-2.4v-1z	M12.1 11.5 h2.4v1h-2.4v-1z
M1.5 13 h2.4v1h-2.4v-1z	M4.15 13 h2.4v1h-2.4v-1z	M6.8 13 h2.4v1h-2.4v-1z	M9.45 13 h2.4v1h-2.4v-1z	M12.1 13 h2.4v1h-2.4v-1z" />
</svg>
